<svg xmlns="http://www.w3.org/2000/svg" viewBox="0 0 195.68 31.18"><defs><style>.cls-1{fill:#fff;}</style></defs><title>Asset 1</title><g id="Layer_2" data-name="Layer 2"><g id="Layer_1-2" data-name="Layer 1"><path class="cls-1" d="M67.66,25.21H65.18l-1.56-4.55h-8L54,25.21H51.56L58,6.27h3.3ZM59.61,8l-3.39,10.5H63Z"/><path class="cls-1" d="M69.11,20.46V16.11c0-3.19,1.2-5,5.52-5a12.47,12.47,0,0,1,3.3.43l-.2,2a15.08,15.08,0,0,0-3-.31c-2.39,0-3.19.68-3.19,2.84v4.53c0,2.16.8,2.84,3.19,2.84a14.39,14.39,0,0,0,3-.31l.23,2a12.77,12.77,0,0,1-3.33.42C70.19,25.49,69.11,23.65,69.11,20.46Z"/><path class="cls-1" d="M88.14,25a8.44,8.44,0,0,1-2.9.51c-2.33,0-3.44-.85-3.44-3.15v-9H79.35v-2H81.8V8l2.39-.35v3.76h3.92l-.19,2H84.19v8.59c0,1,.14,1.54,1.42,1.54a8.77,8.77,0,0,0,2.22-.35Z"/><path class="cls-1" d="M90.73,9.14V5.7h2.39V9.14Zm0,16.07V11.36h2.39V25.21Z"/><path class="cls-1" d="M104.93,11.36h2.36l-4.58,13.85H99.52L94.94,11.36H97.3l3.82,11.89Z"/><path class="cls-1" d="M113.86,25.49c-4,0-5.63-2.3-5.63-5.2v-4c0-2.9,1.59-5.21,5.63-5.21s5.63,2.31,5.63,5.21v4C119.49,23.19,117.9,25.49,113.86,25.49Zm0-12.34c-2.16,0-3.24,1-3.24,3v4.19c0,2,1.08,3,3.24,3s3.24-1,3.24-3V16.19C117.1,14.18,116,13.15,113.86,13.15Z"/><path class="cls-1" d="M134.83,6.27c4.63,0,6.08,2.42,6.08,5.43v8.08c0,3-1.45,5.43-6.08,5.43H128.2V6.27ZM130.65,23h4.09c2.87,0,3.73-1.19,3.73-3.41V11.87c0-2.22-.86-3.41-3.73-3.41h-4.09Z"/><path class="cls-1" d="M144.36,9.14V5.7h2.39V9.14Zm0,16.07V11.36h2.39V25.21Z"/><path class="cls-1" d="M161.34,12.75l-1.65.32a4.93,4.93,0,0,1,.77,2.75v.63c0,3-1.82,4.72-5.43,4.72a12.43,12.43,0,0,1-1.43-.08,2.14,2.14,0,0,0-1,1.48c0,.54.28.74.91.79l3.92.4c2.51.26,3.47,1.22,3.47,3.33,0,3-1,4-6,4a22.17,22.17,0,0,1-5-.66l.34-1.87a22,22,0,0,0,4.64.57c3.53,0,3.87-.49,3.87-1.94,0-1.16-.43-1.36-2-1.51s-2.05-.2-3.67-.34c-2-.17-2.7-1.25-2.7-2.53a3.1,3.1,0,0,1,1.31-2.44,4.17,4.17,0,0,1-1.94-3.93v-.63c0-3,1.45-4.75,5.41-4.75a9,9,0,0,1,2.33.29h4ZM155,13c-2.31,0-3.16.77-3.16,2.81v.6c0,2.11.88,2.76,3.16,2.76s3.15-.94,3.15-2.76v-.6C158.18,13.83,157.33,13,155,13Z"/><path class="cls-1" d="M163.87,9.14V5.7h2.39V9.14Zm0,16.07V11.36h2.39V25.21Z"/><path class="cls-1" d="M177.36,25a8.49,8.49,0,0,1-2.9.51c-2.34,0-3.45-.85-3.45-3.15v-9h-2.44v-2H171V8l2.39-.35v3.76h3.93l-.2,2H173.4v8.59c0,1,.15,1.54,1.43,1.54a8.7,8.7,0,0,0,2.21-.35Z"/><path class="cls-1" d="M189.76,25.21h-2l-.14-1a7.91,7.91,0,0,1-4.5,1.3c-2.58,0-3.66-1.53-3.66-4,0-2.87,1.45-3.89,4.23-3.89h3.7V15.45c0-1.73-.77-2.33-3-2.33a22.71,22.71,0,0,0-4.16.46L180,11.67a19.6,19.6,0,0,1,4.55-.6c3.95,0,5.26,1.54,5.26,4.5Zm-2.39-5.6h-3.53c-1.47,0-2,.45-2,1.85s.26,2,2,2a6.94,6.94,0,0,0,3.58-1.14Z"/><path class="cls-1" d="M193.29,25.21V5.7l2.39-.34V25.21Z"/><path class="cls-1" d="M21.72,0l1.84,6.23h7.06C34.13,6.23,35,7.58,35,10V21.16c0,2.43-.84,3.8-4.35,3.8H26.51l-.11-.36h0L20.77,6.23,18.85,0H9.5L0,31.18H7.3L9,25.1h7.68L15,19.24H10.58l3.6-13.06,3.56,13.06,1.69,5.86,1.68,6.08H31.46c7.67,0,10.53-3.93,10.53-8.1V8.1C42,3.88,39.13,0,31.46,0Z"/></g></g></svg>